<svg xmlns="http://www.w3.org/2000/svg" viewBox="0 0 64 64" role="img" aria-label="Holo Files">
  <defs>
    <linearGradient id="f" x1="0" y1="0" x2="1" y2="1">
      <stop offset="0" stop-color="#3aa0ff"/><stop offset="1" stop-color="#2dd4bf"/>
    </linearGradient>
    <linearGradient id="t" x1="0" y1="0" x2="0" y2="1">
      <stop offset="0" stop-color="#7cc4ff"/><stop offset="1" stop-color="#3aa0ff"/>
    </linearGradient>
  </defs>
  <path d="M8 18a4 4 0 0 1 4-4h12l5 6h23a4 4 0 0 1 4 4v6H8Z" fill="url(#t)"/>
  <path d="M8 24h48a4 4 0 0 1 4 4v18a4 4 0 0 1-4 4H12a4 4 0 0 1-4-4Z" fill="url(#f)"/>
  <circle cx="32" cy="37" r="8.5" fill="none" stroke="#fff" stroke-opacity=".9" stroke-width="2.4"/>
  <circle cx="32" cy="37" r="2.4" fill="#fff"/>
  <path d="M32 28.5v3M32 42.5v3M22.5 37h3M38.5 37h3" stroke="#fff" stroke-opacity=".85" stroke-width="2.2" stroke-linecap="round"/>
</svg>
