<svg xmlns="http://www.w3.org/2000/svg" viewBox="-104 -104 208 208" role="img" aria-label="Hologram">
<title>Hologram</title>
<g fill="#8b5cf6"><circle cx="0.20" cy="-97.39" r="2.61"/><circle cx="-22.86" cy="-86.55" r="2.71"/><circle cx="22.54" cy="-86.32" r="2.81"/><circle cx="-0.03" cy="-76.01" r="2.71"/><circle cx="45.26" cy="-75.92" r="7.80"/><circle cx="-45.82" cy="-75.86" r="2.61"/><circle cx="68.34" cy="-65.13" r="7.70"/><circle cx="-68.83" cy="-65.00" r="2.61"/><circle cx="-22.91" cy="-64.90" r="2.61"/><circle cx="22.71" cy="-64.88" r="2.51"/><circle cx="91.24" cy="-54.34" r="2.61"/><circle cx="-45.94" cy="-54.25" r="7.83"/><circle cx="-91.17" cy="-54.19" r="2.71"/><circle cx="-0.03" cy="-54.19" r="2.71"/><circle cx="45.35" cy="-54.19" r="7.80"/><circle cx="-22.86" cy="-43.64" r="2.71"/><circle cx="22.71" cy="-43.49" r="2.51"/><circle cx="68.29" cy="-43.47" r="7.73"/><circle cx="-68.60" cy="-43.37" r="7.73"/><circle cx="-45.85" cy="-32.63" r="7.77"/><circle cx="45.36" cy="-32.60" r="7.80"/><circle cx="-91.26" cy="-32.55" r="2.71"/><circle cx="0.10" cy="-32.51" r="2.61"/><circle cx="91.24" cy="-32.51" r="2.61"/><circle cx="68.22" cy="-21.95" r="7.83"/><circle cx="22.67" cy="-21.84" r="7.87"/><circle cx="-22.86" cy="-21.82" r="2.71"/><circle cx="-68.57" cy="-21.80" r="7.80"/><circle cx="45.45" cy="-11.06" r="7.73"/><circle cx="-0.19" cy="-11.04" r="7.87"/><circle cx="91.35" cy="-11.01" r="2.81"/><circle cx="-91.54" cy="-10.97" r="2.51"/><circle cx="-45.87" cy="-10.87" r="7.73"/><circle cx="22.71" cy="-0.27" r="8.06"/><circle cx="-22.89" cy="-0.21" r="7.90"/><circle cx="68.28" cy="-0.15" r="7.87"/><circle cx="-68.62" cy="-0.11" r="8.00"/><circle cx="-0.06" cy="10.98" r="7.87"/><circle cx="45.54" cy="11.00" r="7.83"/><circle cx="-45.85" cy="11.02" r="7.77"/><circle cx="-91.26" cy="11.10" r="2.71"/><circle cx="91.24" cy="11.13" r="2.61"/><circle cx="22.71" cy="21.64" r="2.71"/><circle cx="-68.74" cy="21.66" r="7.87"/><circle cx="-22.86" cy="21.67" r="7.87"/><circle cx="68.28" cy="21.67" r="7.87"/><circle cx="-91.54" cy="32.46" r="2.61"/><circle cx="0.15" cy="32.46" r="2.71"/><circle cx="-45.72" cy="32.50" r="7.73"/><circle cx="45.54" cy="32.59" r="7.83"/><circle cx="91.35" cy="32.63" r="2.81"/><circle cx="-23.01" cy="43.23" r="2.61"/><circle cx="68.25" cy="43.31" r="7.83"/><circle cx="-68.71" cy="43.34" r="7.83"/><circle cx="22.71" cy="43.37" r="2.90"/><circle cx="91.39" cy="53.92" r="2.71"/><circle cx="45.48" cy="53.95" r="7.87"/><circle cx="-45.86" cy="53.97" r="7.80"/><circle cx="-91.34" cy="53.99" r="2.61"/><circle cx="0.20" cy="54.09" r="2.61"/><circle cx="-68.57" cy="64.90" r="7.80"/><circle cx="-22.86" cy="64.92" r="2.71"/><circle cx="68.28" cy="64.92" r="2.71"/><circle cx="22.54" cy="65.15" r="2.81"/><circle cx="-45.88" cy="75.56" r="7.80"/><circle cx="0.10" cy="75.62" r="2.61"/><circle cx="45.32" cy="75.62" r="2.61"/><circle cx="22.53" cy="86.47" r="2.71"/><circle cx="-22.86" cy="86.75" r="2.71"/><circle cx="-0.03" cy="97.29" r="2.71"/></g>
</svg>
